<?xml version="1.0" encoding="utf-8"?>
<!-- Generator: Adobe Illustrator 19.2.1, SVG Export Plug-In . SVG Version: 6.00 Build 0)  -->
<svg version="1.1" id="layer" xmlns="http://www.w3.org/2000/svg" xmlns:xlink="http://www.w3.org/1999/xlink" x="0px" y="0px"
	 viewBox="10 10 652 652" style="fill:#ffffff;" xml:space="preserve">
<path d="M416.5,280.5v16.4h-19.3c-4.1,0-8.3,0.3-12.4,1c-6.6,1.1-10.6,7.1-11.2,13.3c-0.7,7.2-0.7,14.4,0,21.6
	c0.6,6.1,4.6,12.2,11.2,13.3c4.1,0.7,8.2,1,12.4,1h32v-66.5H416.5z M416.5,337H401c-13.5,0-15.2-1.7-15.2-15c0-13.3,1.7-15,15.2-15
	h15.6L416.5,337z M495.3,311.2c-0.6-6.1-4.6-12.2-11.2-13.3c-4.1-0.7-8.2-1-12.4-1h-19.3v-16.4h-12.7v66.6h32c4.1,0,8.3-0.3,12.4-1
	c6.6-1.1,10.6-7.1,11.2-13.3C496,325.6,496,318.4,495.3,311.2z M468,337h-15.6v-30H468c13.5,0,15.2,1.7,15.2,15
	C483.2,335.4,481.5,337,468,337z M325.6,310.9c-0.8-6.9-6.2-12.4-13-13.3c-9.5-1.4-19.2-1.4-28.8,0c-6.9,0.9-12.2,6.4-13,13.3
	c-0.8,7.4-0.8,14.8,0,22.1c0.8,6.9,6.2,12.4,13.1,13.3c9.5,1.4,19.2,1.4,28.8,0c6.9-0.9,12.2-6.4,13-13.3
	C326.5,325.7,326.5,318.3,325.6,310.9z M313.1,330.1c-0.1,2.5-1.5,4.8-3.8,5.9c-1.8,0.9-3.8,1.3-5.8,1.2c-4.4,0.3-8.9,0.2-13.3-0.2
	c-2.7,0-5.1-1.6-6.1-4c-0.7-1.7-1.1-3.6-1-5.4c-0.3-4.5-0.2-9.1,0.2-13.6c0.1-2.5,1.5-4.8,3.8-5.9c1.8-0.9,3.8-1.3,5.8-1.2
	c4.4-0.3,8.9-0.2,13.3,0.2c2.7,0,5.1,1.6,6.1,4.1c0.7,1.7,1.1,3.5,1,5.4C313.6,321,313.5,325.5,313.1,330.1z M558.8,310.9
	c-0.8-6.9-6.2-12.4-13-13.3c-9.5-1.4-19.2-1.4-28.8,0c-6.9,0.9-12.3,6.4-13.1,13.3c-0.8,7.4-0.8,14.8,0,22.1
	c0.8,6.9,6.2,12.4,13,13.3c9.5,1.4,19.2,1.4,28.8,0c6.9-0.9,12.2-6.4,13-13.3C559.5,325.7,559.5,318.3,558.8,310.9z M546.3,330.1
	c-0.1,2.5-1.5,4.8-3.8,5.9c-1.8,0.9-3.8,1.3-5.8,1.2c-4.4,0.3-8.9,0.2-13.3-0.2c-2.7,0-5.1-1.6-6.1-4c-0.7-1.7-1.1-3.6-1-5.4
	c-0.3-4.5-0.2-9.1,0.2-13.6c0.1-2.5,1.5-4.8,3.8-5.9c1.8-0.9,3.8-1.3,5.8-1.2c4.4-0.3,8.9-0.2,13.3,0.2c2.7,0,5.1,1.6,6.1,4
	c0.7,1.7,1.1,3.5,1,5.4C546.7,321,546.7,325.5,546.3,330.1z M354.7,307.3c-1,0.1-2,0.5-2.9,1c-0.6,0.3-1.2,0.7-1.7,1.2
	c-0.7,0.6-1.2,1.3-1.5,2.2c-0.4,1.1-0.6,2.2-0.6,3.4c-0.2,2.5-0.2,4.9-0.2,7.4v24.7H335V322c0-3.6,0.2-7.2,0.6-10.8
	c0.1-1.8,0.6-3.5,1.5-5.1c0.8-1.6,1.8-3,3.1-4.2c1.3-1.2,2.8-2.2,4.5-2.9c2-0.8,4.2-1.2,6.4-1.4c1.8-0.2,3.6-0.3,5.4-0.4
	c3.6-0.1,12.2-0.3,12.2-0.3v10C364,306.8,359.3,306.9,354.7,307.3z M138.1,307.3c-1,0.1-2,0.5-2.9,1c-0.6,0.3-1.2,0.7-1.7,1.2
	c-0.7,0.6-1.2,1.3-1.5,2.2c-0.4,1.1-0.6,2.2-0.6,3.4c-0.2,2.5-0.2,4.9-0.2,7.4v24.7h-12.9V322c0-3.6,0.2-7.2,0.6-10.8
	c0.1-1.8,0.6-3.5,1.5-5.1c0.8-1.6,1.8-3,3.1-4.2c1.3-1.2,2.8-2.2,4.5-2.9c2.1-0.8,4.2-1.2,6.4-1.4c1.8-0.2,3.6-0.3,5.3-0.4
	c3.6-0.1,12.2-0.3,12.2-0.3v10C147.3,306.8,142.7,306.9,138.1,307.3z M243.4,322l25.5-25.1h-14L236.3,317h-1.3c0,0,0-14.4,0-20.1
	h-12.8v50.2h12.8c0-5.7,0-20.1,0-20.1h1.3l18.7,20.1h14L243.4,322z M621,296.9h-14l-16.1,17.5l-16.1-17.5h-14l23.1,25.1l-23.1,25.1
	h14l16.1-17.5l16.1,17.5h14L597.9,322L621,296.9z M212,332.3h-12.7c-0.1,0.4-0.3,1.1-0.3,1.1c-0.5,2-2.3,3.3-4.3,3.3
	c-6.8,0.8-13.6,0.8-20.4,0c-2.3-0.2-4.2-2.1-4.5-4.4c-0.3-2.5-0.5-5.5-0.6-8.1h43.3v-1.4c0.1-4-0.1-7.9-0.6-11.9
	c-0.8-6.9-6.2-12.3-13-13.3c-9.6-1.4-19.2-1.4-28.8,0c-6.9,0.9-12.2,6.4-13,13.3c-0.8,7.4-0.8,14.8,0,22.1c0.8,6.9,6.2,12.3,13,13.3
	c9.6,1.4,19.2,1.4,28.8,0c0.6-0.1,1.3-0.2,1.9-0.4c0.6-0.2,1.2-0.4,1.8-0.6c0.6-0.2,1.1-0.5,1.7-0.8c1.6-0.9,3.1-2.1,4.3-3.5
	c0.4-0.4,0.8-0.9,1.1-1.4c0.3-0.5,0.6-1,0.9-1.6c0.4-0.8,0.7-1.6,0.9-2.5c0.2-0.9,0.4-1.7,0.5-2.6C212,332.7,212,332.5,212,332.3z
	 M169.9,311.6c0.3-2.3,2.2-4.2,4.5-4.4c6.8-0.8,13.6-0.8,20.4,0c2.3,0.2,4.2,2.1,4.5,4.4c0.2,1.7,0.3,3.4,0.4,5.1h-30.3
	C169.6,315,169.7,313.3,169.9,311.6z M70,322c0,6.3-5.1,11.4-11.4,11.4s-11.4-5.1-11.4-11.4s5.1-11.4,11.4-11.4S70,315.7,70,322z
	 M58.5,297c7,0,13.7,3,18.4,8.2l13.8-8l-29.1-16.8c-1.9-1.1-4.3-1.1-6.2,0l-29.1,16.8l13.8,8C44.8,300,51.5,297,58.5,297z
	 M82.3,314.4c0.8,2.5,1.2,5,1.2,7.6c0,11.7-8.2,21.9-19.6,24.4v15.9L93,345.5c1.9-1.1,3.1-3.1,3.1-5.3v-33.6L82.3,314.4z M33.6,322
	c0-2.6,0.4-5.1,1.2-7.6L21,306.5v33.6c0,2.2,1.2,4.2,3.1,5.3l29.1,16.8v-15.9C41.8,343.9,33.6,333.7,33.6,322z"/>
</svg>
