<?xml version="1.0" encoding="UTF-8" standalone="no"?>
<svg
   xmlns:dc="http://purl.org/dc/elements/1.1/"
   xmlns:cc="http://creativecommons.org/ns#"
   xmlns:rdf="http://www.w3.org/1999/02/22-rdf-syntax-ns#"
   xmlns:svg="http://www.w3.org/2000/svg"
   xmlns="http://www.w3.org/2000/svg"
   viewBox="0 0 295.29263 39.502083"
   height="39.502083"
   width="295.29263"
   xml:space="preserve"
   id="svg2"
   version="1.1"><metadata
     id="metadata8"><rdf:RDF><cc:Work
         rdf:about=""><dc:format>image/svg+xml</dc:format><dc:type
           rdf:resource="http://purl.org/dc/dcmitype/StillImage" /><dc:title></dc:title></cc:Work></rdf:RDF></metadata><defs
     id="defs6"><clipPath
       id="clipPath20"
       clipPathUnits="userSpaceOnUse"><path
         id="path18"
         d="M 0,0 H 500 V 169.715 H 0 Z" /></clipPath></defs><g
     transform="matrix(1.3333333,0,0,-1.3333333,-185.68696,132.89456)"
     id="g10"><path
       id="path12"
       style="fill:#ffffff;fill-opacity:0;fill-rule:nonzero;stroke:none"
       d="M 0,0 H 500 V 169.715 H 0 Z" /><g
       id="g14"><g
         id="g22"
         transform="translate(299.4367,80.0911)"><path
           d="m 0,0 -3.224,-8.995 h 1.543 l 1.997,5.692 0.379,1.715 H 0.822 C 0.898,-1.901 0.969,-2.181 1.037,-2.427 1.096,-2.638 1.148,-2.833 1.195,-3.011 1.241,-3.189 1.26,-3.278 1.252,-3.278 L 3.224,-8.995 H 4.778 L 1.542,0 Z m 55.4,-8.777 h 5.892 v 1.463 h -4.429 v 2.271 h 4.075 v 1.464 h -4.075 v 2.284 h 4.429 V 0.168 H 55.4 Z M 42.92,-5.497 42.542,-7.2 h -0.127 c -0.075,0.311 -0.147,0.589 -0.214,0.833 -0.059,0.21 -0.112,0.403 -0.158,0.58 -0.046,0.177 -0.065,0.265 -0.057,0.265 l -1.968,5.677 h -1.552 l 3.23,-8.932 h 1.539 l 3.218,8.932 h -1.54 z m -14.735,-3.28 h 1.451 v 8.932 h -1.451 z m -16.141,7.469 h 2.712 v -7.469 h 1.464 v 7.469 h 2.712 v 1.463 h -6.888 z m -26.04,-4.189 -0.379,-1.703 h -0.126 c -0.075,0.311 -0.147,0.589 -0.214,0.833 -0.059,0.21 -0.112,0.403 -0.158,0.58 -0.046,0.177 -0.065,0.265 -0.057,0.265 l -1.968,5.677 h -1.552 l 3.23,-8.932 h 1.539 l 3.217,8.932 h -1.539 z m -14.735,-3.28 h 1.451 v 8.932 h -1.451 z m -14.625,4.731 v 2.738 h 2.007 c 0.487,0 0.885,-0.095 1.192,-0.284 0.307,-0.189 0.46,-0.532 0.46,-1.028 0,-0.505 -0.149,-0.869 -0.448,-1.091 -0.298,-0.224 -0.7,-0.335 -1.204,-0.335 z m 3.703,-0.959 c 0.291,0.126 0.541,0.297 0.751,0.511 0.21,0.215 0.374,0.478 0.492,0.789 0.118,0.311 0.177,0.677 0.177,1.097 -0.017,0.488 -0.106,0.909 -0.265,1.262 -0.16,0.353 -0.379,0.639 -0.656,0.858 -0.278,0.219 -0.606,0.381 -0.984,0.486 -0.379,0.105 -0.787,0.157 -1.224,0.157 h -3.457 v -8.932 h 1.463 v 3.457 h 1.073 l 2.675,-3.457 h 1.779 l -2.763,3.507 c 0.336,0.051 0.649,0.139 0.939,0.265 m -20.626,-3.772 h 5.892 v 1.463 h -4.429 v 2.271 h 4.076 v 1.464 h -4.076 v 2.284 h 4.429 v 1.463 h -5.892 z m -10.991,2.763 c 0,-0.236 -0.05,-0.435 -0.151,-0.599 -0.101,-0.164 -0.238,-0.299 -0.41,-0.404 -0.173,-0.105 -0.373,-0.181 -0.6,-0.227 -0.227,-0.047 -0.466,-0.07 -0.719,-0.07 h -1.754 v 6.006 h 1.754 c 0.253,0 0.492,-0.025 0.719,-0.076 0.227,-0.05 0.427,-0.13 0.6,-0.239 0.172,-0.11 0.309,-0.251 0.41,-0.423 0.101,-0.173 0.151,-0.377 0.151,-0.612 z m 0.442,5.494 c -0.312,0.232 -0.667,0.402 -1.066,0.511 -0.4,0.11 -0.818,0.164 -1.256,0.164 h -3.204 v -8.932 h 3.204 c 0.438,0 0.856,0.052 1.256,0.158 0.399,0.105 0.754,0.269 1.066,0.492 0.311,0.222 0.559,0.508 0.744,0.858 0.185,0.349 0.278,0.767 0.278,1.255 v 3.356 c 0,0.488 -0.093,0.908 -0.278,1.262 -0.185,0.353 -0.433,0.645 -0.744,0.876 m -28.275,-3.387 -2.158,4.062 h -1.678 l 3.104,-5.462 v -3.47 h 1.463 v 3.47 l 3.117,5.462 h -1.704 z m -13.732,-3.192 c -0.286,-0.185 -0.643,-0.278 -1.072,-0.278 h -2.132 v 2.662 h 2.081 c 0.471,0 0.85,-0.1 1.136,-0.302 0.303,-0.211 0.454,-0.56 0.454,-1.048 0,-0.487 -0.156,-0.832 -0.467,-1.034 m -3.204,5.854 h 2.018 c 0.354,0 0.654,-0.082 0.902,-0.246 0.248,-0.164 0.373,-0.418 0.373,-0.763 0,-0.413 -0.12,-0.707 -0.36,-0.884 -0.24,-0.176 -0.545,-0.264 -0.915,-0.264 h -2.018 z m 4.882,-3.634 c -0.092,0.185 -0.216,0.354 -0.372,0.505 -0.156,0.152 -0.355,0.278 -0.599,0.379 0.294,0.193 0.504,0.448 0.631,0.763 0.126,0.315 0.189,0.624 0.189,0.927 0,0.412 -0.072,0.772 -0.215,1.079 -0.143,0.307 -0.338,0.563 -0.586,0.77 -0.248,0.206 -0.537,0.359 -0.865,0.46 -0.328,0.101 -0.677,0.151 -1.047,0.151 h -3.482 v -8.932 h 3.47 c 0.437,0 0.845,0.046 1.223,0.139 0.379,0.092 0.707,0.243 0.984,0.454 0.278,0.21 0.499,0.483 0.663,0.82 0.164,0.336 0.25,0.753 0.259,1.249 0,0.227 -0.019,0.444 -0.057,0.65 -0.038,0.206 -0.103,0.401 -0.196,0.586 M 53.289,16.81 h 3.281 c 0.67,0 1.182,-0.147 1.536,-0.44 0.449,-0.333 0.68,-0.872 0.692,-1.616 0,-0.62 -0.192,-1.142 -0.578,-1.567 -0.392,-0.457 -0.98,-0.692 -1.764,-0.705 H 53.289 Z M 58.817,4.485 h 2.481 l -3.192,6.318 c 1.75,0.697 2.638,2.012 2.663,3.946 -0.038,1.315 -0.493,2.327 -1.367,3.037 -0.726,0.625 -1.664,0.937 -2.813,0.937 H 51.201 V 4.485 h 2.088 v 6.085 h 2.674 z m -12.729,2.03 h -6.722 v 4.192 h 5.738 v 1.912 h -5.738 v 4.074 h 6.722 v 2.03 h -8.81 V 4.485 h 8.81 z M 29.048,8.601 H 29.01 L 22.765,18.723 H 20.796 V 4.485 h 2.088 v 10.122 h 0.038 L 29.158,4.485 h 1.978 V 18.723 H 29.048 Z M 15.172,9.42 v 2.896 H 10.27 v -2.029 h 2.814 V 9.542 C 13.071,8.648 12.8,7.926 12.269,7.377 11.738,6.803 11.066,6.515 10.251,6.515 9.758,6.515 9.335,6.623 8.981,6.838 8.621,7.021 8.331,7.259 8.11,7.553 7.838,7.859 7.658,8.261 7.57,8.756 7.469,9.252 7.418,10.201 7.418,11.604 c 0,1.403 0.051,2.359 0.152,2.867 0.088,0.483 0.268,0.878 0.539,1.185 0.221,0.293 0.512,0.538 0.871,0.734 0.354,0.189 0.777,0.29 1.269,0.303 0.669,-0.013 1.237,-0.213 1.704,-0.599 0.448,-0.405 0.757,-0.896 0.928,-1.472 h 2.215 c -0.22,1.191 -0.75,2.191 -1.588,2.998 -0.838,0.801 -1.922,1.207 -3.252,1.221 C 9.172,18.827 8.267,18.56 7.542,18.04 6.805,17.525 6.269,16.94 5.935,16.282 5.727,15.937 5.573,15.484 5.472,14.924 5.377,14.365 5.33,13.258 5.33,11.604 5.33,9.977 5.377,8.876 5.472,8.303 5.522,7.997 5.585,7.743 5.661,7.542 5.743,7.346 5.834,7.141 5.935,6.927 6.269,6.269 6.805,5.69 7.542,5.188 c 0.725,-0.521 1.63,-0.794 2.714,-0.82 1.405,0.026 2.571,0.517 3.498,1.473 0.92,0.962 1.393,2.155 1.418,3.579 M -0.069,18.723 H -2.157 V 4.485 h 2.088 z m -11.243,-6.116 c -0.656,0.085 -1.173,0.16 -1.552,0.225 -0.681,0.131 -1.176,0.365 -1.485,0.704 -0.309,0.332 -0.464,0.704 -0.464,1.114 0.013,0.684 0.243,1.199 0.691,1.545 0.429,0.332 0.965,0.498 1.609,0.498 1.243,-0.026 2.382,-0.391 3.417,-1.096 l 1.164,1.773 c -1.267,0.941 -2.757,1.432 -4.47,1.471 -1.424,-0.014 -2.524,-0.398 -3.299,-1.154 -0.8,-0.762 -1.2,-1.766 -1.2,-3.01 0,-1.036 0.319,-1.916 0.956,-2.639 0.618,-0.704 1.52,-1.157 2.706,-1.359 0.662,-0.098 1.271,-0.186 1.826,-0.264 1.211,-0.215 1.81,-0.853 1.797,-1.915 -0.025,-1.297 -0.934,-1.959 -2.726,-1.985 -1.515,0.013 -2.821,0.486 -3.919,1.42 l -1.371,-1.624 c 1.468,-1.295 3.223,-1.943 5.265,-1.943 3.157,0.039 4.77,1.42 4.839,4.144 0,1.01 -0.306,1.896 -0.917,2.659 -0.619,0.775 -1.574,1.254 -2.867,1.436 M -30.355,4.485 h 8.81 v 2.03 h -6.722 v 4.192 h 5.738 v 1.912 h -5.738 v 4.074 h 6.722 v 2.03 h -8.81 z m -7.807,4.438 C -38.225,8.453 -38.374,8.065 -38.607,7.758 -39.138,6.93 -39.99,6.515 -41.164,6.515 h -2.501 v 10.178 h 2.501 c 1.06,0.026 1.881,-0.375 2.462,-1.204 0.284,-0.332 0.464,-0.766 0.54,-1.301 0.057,-0.535 0.085,-1.423 0.085,-2.662 0,-1.272 -0.028,-2.14 -0.085,-2.603 m 1.436,7.398 c -0.934,1.588 -2.334,2.389 -4.201,2.402 h -4.826 V 4.485 h 4.684 c 1.034,0 1.907,0.234 2.62,0.703 0.719,0.436 1.281,0.99 1.684,1.66 0.152,0.254 0.281,0.498 0.388,0.733 0.101,0.241 0.177,0.514 0.227,0.82 0.107,0.606 0.161,1.673 0.161,3.203 0,1.439 -0.035,2.451 -0.104,3.037 -0.088,0.586 -0.299,1.146 -0.633,1.68 m -17.227,-3.702 h -5.471 v 6.104 h -2.088 V 4.485 h 2.088 v 6.222 h 5.471 V 4.485 h 2.088 v 14.238 h -2.088 z m -19.171,3.037 c 0.221,0.293 0.511,0.538 0.872,0.734 0.353,0.189 0.776,0.29 1.269,0.303 0.67,-0.013 1.238,-0.212 1.705,-0.597 0.449,-0.404 0.758,-0.894 0.929,-1.468 h 2.217 c -0.221,1.19 -0.751,2.188 -1.59,2.994 -0.838,0.799 -1.923,1.205 -3.253,1.219 -1.085,-0.014 -1.99,-0.281 -2.715,-0.801 -0.738,-0.515 -1.274,-1.1 -1.608,-1.758 -0.208,-0.345 -0.363,-0.798 -0.464,-1.358 -0.094,-0.559 -0.142,-1.666 -0.142,-3.32 0,-1.627 0.048,-2.728 0.142,-3.301 0.051,-0.306 0.114,-0.56 0.189,-0.761 0.082,-0.196 0.174,-0.401 0.275,-0.615 0.334,-0.658 0.869,-1.237 1.607,-1.739 0.725,-0.521 1.629,-0.794 2.714,-0.82 1.198,0 2.236,0.351 3.113,1.053 0.851,0.708 1.429,1.722 1.732,3.042 h -2.215 c -0.581,-1.299 -1.459,-1.948 -2.635,-1.948 -0.493,0 -0.916,0.108 -1.27,0.323 -0.36,0.183 -0.651,0.421 -0.872,0.715 -0.272,0.306 -0.452,0.708 -0.54,1.203 -0.101,0.496 -0.152,1.445 -0.152,2.848 0,1.403 0.051,2.359 0.152,2.867 0.088,0.483 0.268,0.878 0.54,1.185 m -10.247,-6.12 c -0.013,-0.971 -0.278,-1.711 -0.796,-2.219 -0.531,-0.534 -1.203,-0.802 -2.018,-0.802 -0.815,0 -1.481,0.268 -1.999,0.802 -0.53,0.508 -0.802,1.248 -0.814,2.219 v 9.187 h -2.088 V 9.304 c 0.012,-1.496 0.492,-2.683 1.438,-3.561 0.927,-0.904 2.082,-1.362 3.463,-1.375 1.407,0.013 2.571,0.472 3.492,1.377 0.914,0.879 1.384,2.067 1.409,3.564 v 9.414 h -2.087 z m -19.276,-2.698 c -0.36,0.183 -0.651,0.421 -0.872,0.715 -0.271,0.306 -0.451,0.708 -0.54,1.203 -0.101,0.496 -0.151,1.445 -0.151,2.848 0,1.403 0.05,2.359 0.151,2.868 0.089,0.482 0.269,0.877 0.54,1.184 0.221,0.293 0.512,0.538 0.872,0.734 0.354,0.189 0.777,0.29 1.269,0.303 0.5,-0.013 0.932,-0.114 1.299,-0.303 0.347,-0.196 0.625,-0.441 0.833,-0.734 0.272,-0.307 0.458,-0.702 0.559,-1.185 0.095,-0.508 0.142,-1.464 0.142,-2.867 0,-1.403 -0.047,-2.352 -0.142,-2.848 -0.101,-0.495 -0.287,-0.897 -0.559,-1.203 -0.208,-0.294 -0.486,-0.532 -0.833,-0.715 -0.367,-0.215 -0.799,-0.323 -1.299,-0.323 -0.492,0 -0.915,0.108 -1.269,0.323 m 4.016,-1.65 c 0.725,0.502 1.248,1.081 1.569,1.739 0.234,0.344 0.394,0.803 0.483,1.376 0.081,0.573 0.123,1.674 0.123,3.301 0,1.654 -0.042,2.761 -0.123,3.32 -0.089,0.56 -0.249,1.013 -0.482,1.358 -0.322,0.658 -0.845,1.243 -1.57,1.758 -0.731,0.52 -1.645,0.787 -2.742,0.801 -1.084,-0.014 -1.988,-0.279 -2.713,-0.798 -0.738,-0.513 -1.273,-1.096 -1.607,-1.751 -0.208,-0.346 -0.363,-0.8 -0.464,-1.361 -0.094,-0.561 -0.141,-1.67 -0.141,-3.327 0,-1.627 0.047,-2.728 0.141,-3.301 0.051,-0.306 0.114,-0.56 0.19,-0.761 0.081,-0.196 0.173,-0.401 0.274,-0.615 0.334,-0.658 0.869,-1.237 1.607,-1.739 0.725,-0.521 1.629,-0.794 2.713,-0.82 1.097,0.026 2.011,0.299 2.742,0.82 m -21.073,11.622 h 3.779 V 4.485 h 2.088 V 16.81 h 3.783 v 1.913 h -9.65 z M -145.673,0.974 c -3.01,0.945 -6.202,-0.693 -7.155,-3.67 -0.955,-2.98 0.7,-6.14 3.711,-7.083 3.009,-0.946 6.202,0.694 7.155,3.672 0.954,2.978 -0.702,6.138 -3.711,7.081 m 5.224,10.947 c -5.843,-2.128 -6.518,-1.82 -8.669,3.962 -1.091,2.932 -4.356,4.424 -7.32,3.347 -2.962,-1.08 -4.469,-4.311 -3.379,-7.243 1.091,-2.932 4.356,-4.424 7.318,-3.344 5.843,2.128 6.52,1.818 8.67,-3.965 1.09,-2.932 4.355,-4.424 7.317,-3.344 2.964,1.077 4.47,4.31 3.38,7.242 -1.09,2.933 -4.355,4.425 -7.317,3.345"
           style="fill:#FFFFFF;fill-opacity:1;fill-rule:nonzero;stroke:none"
           id="path24" /></g></g></g></svg>